<svg width="251" height="40" viewBox="0 0 251 40" fill="none" xmlns="http://www.w3.org/2000/svg">
<path d="M18.3562 5.82192V0H0V40H18.3562V34.1781C14.5959 34.1781 10.9896 32.6842 8.33074 30.0253C5.67183 27.3664 4.17808 23.7603 4.17808 20C4.17808 16.2397 5.67183 12.6334 8.33074 9.97459C10.9896 7.31568 14.5959 5.82192 18.3562 5.82192Z" fill="#C27CF8"/>
<path d="M18.3568 5.82178V34.1779C22.1171 34.1779 25.7234 32.6841 28.3823 30.0252C31.0412 27.3663 32.5349 23.7601 32.5349 19.9999C32.5349 16.2396 31.0412 12.6333 28.3823 9.97445C25.7234 7.31554 22.1171 5.82178 18.3568 5.82178Z" fill="#C27CF8"/>
<path d="M54.1135 28.788C52.4335 28.788 50.9855 28.428 49.7695 27.708C48.5695 26.972 47.6415 25.956 46.9855 24.66C46.3455 23.348 46.0255 21.836 46.0255 20.124C46.0255 18.412 46.3455 16.9 46.9855 15.588C47.6415 14.276 48.5695 13.252 49.7695 12.516C50.9855 11.78 52.4335 11.412 54.1135 11.412C56.1455 11.412 57.8095 11.916 59.1055 12.924C60.4015 13.932 61.2095 15.356 61.5295 17.196H58.0015C57.7935 16.3 57.3535 15.604 56.6815 15.108C56.0255 14.596 55.1615 14.34 54.0895 14.34C53.0975 14.34 52.2415 14.58 51.5215 15.06C50.8175 15.524 50.2735 16.188 49.8895 17.052C49.5055 17.9 49.3135 18.924 49.3135 20.124C49.3135 21.308 49.5055 22.332 49.8895 23.196C50.2735 24.06 50.8175 24.724 51.5215 25.188C52.2415 25.652 53.0975 25.884 54.0895 25.884C55.1615 25.884 56.0255 25.652 56.6815 25.188C57.3375 24.708 57.7695 24.044 57.9775 23.196H61.5295C61.2095 24.94 60.4015 26.308 59.1055 27.3C57.8095 28.292 56.1455 28.788 54.1135 28.788ZM63.2242 28.5V11.22H66.4642V18.204C66.8642 17.564 67.3922 17.06 68.0482 16.692C68.7202 16.308 69.4962 16.116 70.3762 16.116C71.3842 16.116 72.2322 16.332 72.9202 16.764C73.6082 17.18 74.1282 17.788 74.4802 18.588C74.8322 19.388 75.0082 20.38 75.0082 21.564V28.5H71.7922V21.852C71.7922 20.892 71.5922 20.156 71.1922 19.644C70.7922 19.116 70.1602 18.852 69.2962 18.852C68.7682 18.852 68.2882 18.98 67.8562 19.236C67.4242 19.492 67.0802 19.868 66.8242 20.364C66.5842 20.844 66.4642 21.42 66.4642 22.092V28.5H63.2242ZM81.1402 28.788C80.1322 28.788 79.3002 28.628 78.6442 28.308C77.9882 27.972 77.5002 27.532 77.1802 26.988C76.8762 26.428 76.7242 25.812 76.7242 25.14C76.7242 24.404 76.9082 23.756 77.2762 23.196C77.6602 22.636 78.2282 22.196 78.9802 21.876C79.7482 21.556 80.7082 21.396 81.8602 21.396H84.8602C84.8602 20.804 84.7802 20.316 84.6202 19.932C84.4602 19.532 84.2122 19.236 83.8762 19.044C83.5402 18.852 83.0922 18.756 82.5322 18.756C81.9242 18.756 81.4042 18.892 80.9722 19.164C80.5562 19.42 80.3002 19.82 80.2042 20.364H77.0602C77.1402 19.5 77.4202 18.756 77.9002 18.132C78.3962 17.492 79.0442 16.996 79.8442 16.644C80.6602 16.292 81.5642 16.116 82.5562 16.116C83.6922 16.116 84.6762 16.308 85.5082 16.692C86.3402 17.076 86.9802 17.628 87.4282 18.348C87.8762 19.068 88.1002 19.956 88.1002 21.012V28.5H85.3642L85.0042 26.652C84.8282 26.972 84.6202 27.26 84.3802 27.516C84.1402 27.772 83.8602 27.996 83.5402 28.188C83.2202 28.38 82.8602 28.524 82.4602 28.62C82.0602 28.732 81.6202 28.788 81.1402 28.788ZM81.9082 26.292C82.3242 26.292 82.6922 26.22 83.0122 26.076C83.3482 25.916 83.6362 25.708 83.8762 25.452C84.1162 25.18 84.3002 24.876 84.4282 24.54C84.5722 24.188 84.6682 23.812 84.7162 23.412V23.388H82.2442C81.7482 23.388 81.3402 23.452 81.0202 23.58C80.7162 23.692 80.4922 23.86 80.3482 24.084C80.2042 24.308 80.1322 24.564 80.1322 24.852C80.1322 25.172 80.2042 25.436 80.3482 25.644C80.4922 25.852 80.7002 26.012 80.9722 26.124C81.2442 26.236 81.5562 26.292 81.9082 26.292ZM90.1227 28.5V16.404H93.0027L93.3147 18.636C93.6027 18.108 93.9627 17.66 94.3947 17.292C94.8427 16.924 95.3467 16.636 95.9067 16.428C96.4827 16.22 97.1147 16.116 97.8027 16.116V19.548H96.6987C96.2187 19.548 95.7707 19.604 95.3547 19.716C94.9547 19.828 94.6027 20.012 94.2987 20.268C93.9947 20.508 93.7627 20.844 93.6027 21.276C93.4427 21.708 93.3627 22.252 93.3627 22.908V28.5H90.1227ZM103.023 28.788C102.015 28.788 101.183 28.628 100.527 28.308C99.871 27.972 99.383 27.532 99.063 26.988C98.759 26.428 98.607 25.812 98.607 25.14C98.607 24.404 98.791 23.756 99.159 23.196C99.543 22.636 100.111 22.196 100.863 21.876C101.631 21.556 102.591 21.396 103.743 21.396H106.743C106.743 20.804 106.663 20.316 106.503 19.932C106.343 19.532 106.095 19.236 105.759 19.044C105.423 18.852 104.975 18.756 104.415 18.756C103.807 18.756 103.287 18.892 102.855 19.164C102.439 19.42 102.183 19.82 102.087 20.364H98.943C99.023 19.5 99.303 18.756 99.783 18.132C100.279 17.492 100.927 16.996 101.727 16.644C102.543 16.292 103.447 16.116 104.439 16.116C105.575 16.116 106.559 16.308 107.391 16.692C108.223 17.076 108.863 17.628 109.311 18.348C109.759 19.068 109.983 19.956 109.983 21.012V28.5H107.247L106.887 26.652C106.711 26.972 106.503 27.26 106.263 27.516C106.023 27.772 105.743 27.996 105.423 28.188C105.103 28.38 104.743 28.524 104.343 28.62C103.943 28.732 103.503 28.788 103.023 28.788ZM103.791 26.292C104.207 26.292 104.575 26.22 104.895 26.076C105.231 25.916 105.519 25.708 105.759 25.452C105.999 25.18 106.183 24.876 106.311 24.54C106.455 24.188 106.551 23.812 106.599 23.412V23.388H104.127C103.631 23.388 103.223 23.452 102.903 23.58C102.599 23.692 102.375 23.86 102.231 24.084C102.087 24.308 102.015 24.564 102.015 24.852C102.015 25.172 102.087 25.436 102.231 25.644C102.375 25.852 102.583 26.012 102.855 26.124C103.127 26.236 103.439 26.292 103.791 26.292ZM117.861 28.788C116.645 28.788 115.565 28.516 114.621 27.972C113.677 27.428 112.941 26.684 112.413 25.74C111.885 24.796 111.621 23.716 111.621 22.5C111.621 21.252 111.885 20.156 112.413 19.212C112.941 18.252 113.677 17.5 114.621 16.956C115.565 16.396 116.645 16.116 117.861 16.116C119.413 16.116 120.717 16.524 121.773 17.34C122.829 18.156 123.501 19.276 123.789 20.7H120.357C120.213 20.14 119.909 19.7 119.445 19.38C118.997 19.06 118.461 18.9 117.837 18.9C117.277 18.9 116.773 19.044 116.325 19.332C115.893 19.604 115.549 20.012 115.293 20.556C115.053 21.084 114.933 21.716 114.933 22.452C114.933 23.012 115.005 23.516 115.149 23.964C115.293 24.396 115.493 24.772 115.749 25.092C116.005 25.396 116.309 25.628 116.661 25.788C117.029 25.948 117.421 26.028 117.837 26.028C118.253 26.028 118.629 25.956 118.965 25.812C119.317 25.668 119.613 25.468 119.853 25.212C120.093 24.94 120.261 24.612 120.357 24.228H123.789C123.501 25.62 122.821 26.732 121.749 27.564C120.693 28.38 119.397 28.788 117.861 28.788ZM130.891 28.5C130.043 28.5 129.299 28.372 128.659 28.116C128.035 27.844 127.547 27.404 127.195 26.796C126.843 26.172 126.667 25.324 126.667 24.252V19.116H124.603V16.404H126.667L127.027 13.116H129.907V16.404H133.099V19.116H129.907V24.3C129.907 24.844 130.027 25.22 130.267 25.428C130.507 25.636 130.915 25.74 131.491 25.74H133.075V28.5H130.891ZM140.329 28.788C139.113 28.788 138.033 28.532 137.089 28.02C136.161 27.492 135.433 26.764 134.905 25.836C134.393 24.892 134.137 23.804 134.137 22.572C134.137 21.308 134.393 20.196 134.905 19.236C135.433 18.26 136.161 17.5 137.089 16.956C138.017 16.396 139.097 16.116 140.329 16.116C141.529 16.116 142.577 16.38 143.473 16.908C144.369 17.436 145.065 18.148 145.561 19.044C146.057 19.94 146.305 20.956 146.305 22.092C146.305 22.252 146.305 22.436 146.305 22.644C146.305 22.836 146.289 23.036 146.257 23.244H136.441V21.276H143.041C142.993 20.492 142.713 19.876 142.201 19.428C141.705 18.98 141.081 18.756 140.329 18.756C139.785 18.756 139.281 18.884 138.817 19.14C138.353 19.38 137.985 19.756 137.713 20.268C137.457 20.78 137.329 21.428 137.329 22.212V22.908C137.329 23.564 137.449 24.14 137.689 24.636C137.945 25.116 138.297 25.492 138.745 25.764C139.193 26.02 139.713 26.148 140.305 26.148C140.897 26.148 141.385 26.02 141.769 25.764C142.169 25.508 142.465 25.18 142.657 24.78H145.969C145.745 25.532 145.369 26.212 144.841 26.82C144.313 27.428 143.665 27.908 142.897 28.26C142.129 28.612 141.273 28.788 140.329 28.788ZM147.959 28.5V16.404H150.839L151.151 18.636C151.439 18.108 151.799 17.66 152.231 17.292C152.679 16.924 153.183 16.636 153.743 16.428C154.319 16.22 154.951 16.116 155.639 16.116V19.548H154.535C154.055 19.548 153.607 19.604 153.191 19.716C152.791 19.828 152.439 20.012 152.135 20.268C151.831 20.508 151.599 20.844 151.439 21.276C151.279 21.708 151.199 22.252 151.199 22.908V28.5H147.959ZM169.035 28.788C167.355 28.788 165.907 28.428 164.691 27.708C163.491 26.972 162.563 25.956 161.907 24.66C161.267 23.348 160.947 21.836 160.947 20.124C160.947 18.412 161.267 16.9 161.907 15.588C162.563 14.276 163.491 13.252 164.691 12.516C165.907 11.78 167.355 11.412 169.035 11.412C171.067 11.412 172.731 11.916 174.027 12.924C175.323 13.932 176.131 15.356 176.451 17.196H172.923C172.715 16.3 172.275 15.604 171.603 15.108C170.947 14.596 170.083 14.34 169.011 14.34C168.019 14.34 167.163 14.58 166.443 15.06C165.739 15.524 165.195 16.188 164.811 17.052C164.427 17.9 164.235 18.924 164.235 20.124C164.235 21.308 164.427 22.332 164.811 23.196C165.195 24.06 165.739 24.724 166.443 25.188C167.163 25.652 168.019 25.884 169.011 25.884C170.083 25.884 170.947 25.652 171.603 25.188C172.259 24.708 172.691 24.044 172.899 23.196H176.451C176.131 24.94 175.323 26.308 174.027 27.3C172.731 28.292 171.067 28.788 169.035 28.788ZM183.858 28.788C182.706 28.788 181.666 28.524 180.738 27.996C179.826 27.452 179.098 26.708 178.554 25.764C178.026 24.804 177.762 23.708 177.762 22.476C177.762 21.212 178.026 20.108 178.554 19.164C179.098 18.204 179.834 17.46 180.762 16.932C181.69 16.388 182.73 16.116 183.882 16.116C185.05 16.116 186.09 16.388 187.002 16.932C187.93 17.46 188.658 18.204 189.186 19.164C189.73 20.108 190.002 21.204 190.002 22.452C190.002 23.7 189.73 24.804 189.186 25.764C188.658 26.708 187.93 27.452 187.002 27.996C186.074 28.524 185.026 28.788 183.858 28.788ZM183.858 25.98C184.402 25.98 184.882 25.852 185.298 25.596C185.73 25.34 186.066 24.948 186.306 24.42C186.562 23.892 186.69 23.236 186.69 22.452C186.69 21.668 186.562 21.02 186.306 20.508C186.066 19.98 185.73 19.588 185.298 19.332C184.882 19.06 184.41 18.924 183.882 18.924C183.37 18.924 182.898 19.06 182.466 19.332C182.034 19.588 181.69 19.98 181.434 20.508C181.194 21.02 181.074 21.668 181.074 22.452C181.074 23.236 181.194 23.892 181.434 24.42C181.69 24.948 182.026 25.34 182.442 25.596C182.874 25.852 183.346 25.98 183.858 25.98ZM196.307 28.788C195.331 28.788 194.491 28.588 193.787 28.188C193.099 27.772 192.571 27.172 192.203 26.388C191.835 25.588 191.651 24.604 191.651 23.436V16.404H194.891V23.1C194.891 24.076 195.091 24.812 195.491 25.308C195.907 25.804 196.539 26.052 197.387 26.052C197.931 26.052 198.411 25.932 198.827 25.692C199.243 25.436 199.571 25.076 199.811 24.612C200.067 24.132 200.195 23.548 200.195 22.86V16.404H203.411V28.5H200.579L200.315 26.532C199.963 27.22 199.443 27.772 198.755 28.188C198.067 28.588 197.251 28.788 196.307 28.788ZM205.584 28.5V16.404H208.44L208.68 18.372C209.048 17.7 209.568 17.156 210.24 16.74C210.928 16.324 211.744 16.116 212.688 16.116C213.696 16.116 214.544 16.324 215.232 16.74C215.92 17.156 216.44 17.764 216.792 18.564C217.16 19.364 217.344 20.348 217.344 21.516V28.5H214.128V21.828C214.128 20.868 213.92 20.132 213.504 19.62C213.104 19.108 212.48 18.852 211.632 18.852C211.088 18.852 210.6 18.98 210.168 19.236C209.752 19.492 209.424 19.86 209.184 20.34C208.944 20.804 208.824 21.372 208.824 22.044V28.5H205.584ZM224.844 28.5C223.996 28.5 223.252 28.372 222.612 28.116C221.988 27.844 221.5 27.404 221.148 26.796C220.796 26.172 220.62 25.324 220.62 24.252V19.116H218.556V16.404H220.62L220.98 13.116H223.86V16.404H227.052V19.116H223.86V24.3C223.86 24.844 223.98 25.22 224.22 25.428C224.46 25.636 224.868 25.74 225.444 25.74H227.028V28.5H224.844ZM234.282 28.788C233.066 28.788 231.986 28.532 231.042 28.02C230.114 27.492 229.386 26.764 228.858 25.836C228.346 24.892 228.09 23.804 228.09 22.572C228.09 21.308 228.346 20.196 228.858 19.236C229.386 18.26 230.114 17.5 231.042 16.956C231.97 16.396 233.05 16.116 234.282 16.116C235.482 16.116 236.53 16.38 237.426 16.908C238.322 17.436 239.018 18.148 239.514 19.044C240.01 19.94 240.258 20.956 240.258 22.092C240.258 22.252 240.258 22.436 240.258 22.644C240.258 22.836 240.242 23.036 240.21 23.244H230.394V21.276H236.994C236.946 20.492 236.666 19.876 236.154 19.428C235.658 18.98 235.034 18.756 234.282 18.756C233.738 18.756 233.234 18.884 232.77 19.14C232.306 19.38 231.938 19.756 231.666 20.268C231.41 20.78 231.282 21.428 231.282 22.212V22.908C231.282 23.564 231.402 24.14 231.642 24.636C231.898 25.116 232.25 25.492 232.698 25.764C233.146 26.02 233.666 26.148 234.258 26.148C234.85 26.148 235.338 26.02 235.722 25.764C236.122 25.508 236.418 25.18 236.61 24.78H239.922C239.698 25.532 239.322 26.212 238.794 26.82C238.266 27.428 237.618 27.908 236.85 28.26C236.082 28.612 235.226 28.788 234.282 28.788ZM241.912 28.5V16.404H244.792L245.104 18.636C245.392 18.108 245.752 17.66 246.184 17.292C246.632 16.924 247.136 16.636 247.696 16.428C248.272 16.22 248.904 16.116 249.592 16.116V19.548H248.488C248.008 19.548 247.56 19.604 247.144 19.716C246.744 19.828 246.392 20.012 246.088 20.268C245.784 20.508 245.552 20.844 245.392 21.276C245.232 21.708 245.152 22.252 245.152 22.908V28.5H241.912Z" fill="#12131A"/>
</svg>
